<svg width="30" height="34" viewBox="0 0 30 34" fill="none" xmlns="http://www.w3.org/2000/svg">
<path d="M26.011 6.43984C25.9911 6.26368 25.8319 6.18538 25.7125 6.16581C25.5931 6.14623 23.2049 6.12666 23.2049 6.12666C23.2049 6.12666 21.1949 4.20841 20.9959 4.01267C20.7969 3.81693 20.4188 3.87565 20.2595 3.9148C20.2595 3.9148 19.8814 4.03224 19.2446 4.22798C19.1451 3.89522 18.9859 3.48417 18.7669 3.07312C18.0505 1.72251 17.0156 1.01785 15.7419 1.01785C15.6623 1.01785 15.5628 1.01785 15.4832 1.03742C15.4434 0.998276 15.4036 0.959128 15.3638 0.900406C14.8066 0.313187 14.11 0.0391509 13.2742 0.0587249C11.6423 0.0978728 10.0303 1.25274 8.69688 3.32758C7.76151 4.77605 7.06497 6.59643 6.86595 8.00576C4.99523 8.57341 3.68174 8.96489 3.66184 8.98446C2.72648 9.27807 2.68668 9.29764 2.56727 10.1785C2.46776 10.8244 0 29.635 0 29.635L20.7173 33.1583L29.6928 30.966C29.6928 30.966 26.0309 6.59643 26.011 6.43984ZM18.2097 4.54117C17.7321 4.67818 17.1947 4.85435 16.5977 5.03052C16.5778 4.22798 16.4783 3.09269 16.1002 2.11399C17.3539 2.34888 17.951 3.71906 18.2097 4.54117ZM15.523 5.36327C14.4285 5.69603 13.2543 6.04836 12.0602 6.42027C12.3985 5.16753 13.0354 3.9148 13.8115 3.09269C14.11 2.77951 14.5081 2.44675 14.9857 2.25101C15.4434 3.17099 15.523 4.48244 15.523 5.36327ZM13.2941 1.13529C13.6722 1.13529 13.9906 1.21359 14.2692 1.38976C13.8314 1.60507 13.3936 1.93783 12.9956 2.36845C11.9607 3.4646 11.1646 5.14796 10.8462 6.79217C9.85115 7.08578 8.89589 7.37939 8.00033 7.65343C8.59737 5.06966 10.7865 1.21359 13.2941 1.13529Z" fill="#95BF47"/>
</svg>
